<svg xmlns="http://www.w3.org/2000/svg" viewBox="0 0 591.13 132.23"><defs><style>.cls-1{fill:#eee8c1;opacity:0.32;}</style></defs><title>cloudLeft2Asset 29</title><g id="Layer_2" data-name="Layer 2"><g id="OBJECTS"><path class="cls-1" d="M591.13,0s-30.66,18.67-44.66,21.33-8,3.34-20,4.67-12.67-2.67-26.67,0-24,2-27.33,8.67,21.33,2.66,20,8.66-19.34,4-24.67,7.34S486.47,54,450.47,58s-28.67-8-51.34,6.67-22,12-44.66,15.33-42,4.67-28.67,13.33,71.33,7.34,75.33,12-33.33,6.67-58,6-39.33-8.41-70,.13S239.8,126,209.13,126s-38-1.33-90,4-46.32-.67-80.66,0S0,129.33,0,129.33V3.33Z"/></g></g></svg>