<svg xmlns="http://www.w3.org/2000/svg" viewBox="0 0 283.83 66.38"><defs><style>.cls-1{fill:#eee8c1;opacity:0.32;}</style></defs><title>clouds-full-left1Asset 35</title><g id="Layer_2" data-name="Layer 2"><g id="OBJECTS"><path class="cls-1" d="M238.83,46.06c-16.5-4.61-15.5-12.9-31.5-14.9s-22.5-6.5-26.67-13-49.33-7-70.83-9-41-8-58.44-9C47.06-.09,41.05,0,34.47.2c-1,8.94-9.52,16.16-18.42,16.16A17.83,17.83,0,0,1,4.3,12,19.72,19.72,0,0,1,0,14.67,20,20,0,0,1,5.16,27.25a16.73,16.73,0,0,1-3.68,11,135.92,135.92,0,0,1,21,2c5.48,1,9.38,4.89,11.52,9.67.4,0,.8,0,1.2,0A18.34,18.34,0,0,1,52.39,62.24C62.45,60.85,71,60.09,90.33,64.16c28.5,6,25.5-1.5,37-6.61s11.5-7.89,26.5-8.39,20,8,36,6,20-.5,40,1.5,54,0,54,0S255.33,50.66,238.83,46.06Z"/></g></g></svg>