<svg xmlns="http://www.w3.org/2000/svg" viewBox="0 0 316.64 41.61"><defs><style>.cls-1{fill:none;}</style></defs><title>hello-emptyAsset 42</title><g id="Layer_2" data-name="Layer 2"><g id="OBJECTS"><path class="cls-1" d="M38.73,40.82H23.2V38.94L25,38.79a5.43,5.43,0,0,0,1.64-.32,2.2,2.2,0,0,0,1.16-1,3.32,3.32,0,0,0,.37-1.68V22.52H10.63v13a3.62,3.62,0,0,0,.3,1.56,2.62,2.62,0,0,0,1.2,1.11,7.3,7.3,0,0,0,1.59.47,10.77,10.77,0,0,0,1.81.26v1.88H0V38.94l1.83-.15a5.52,5.52,0,0,0,1.65-.32,2.23,2.23,0,0,0,1.16-1A3.32,3.32,0,0,0,5,35.83v-27a3.44,3.44,0,0,0-.34-1.54A2.41,2.41,0,0,0,3.48,6.2a9.56,9.56,0,0,0-1.73-.61A10,10,0,0,0,0,5.27V3.4H15.53V5.27a12.42,12.42,0,0,0-1.81.24,11.19,11.19,0,0,0-1.59.4,1.87,1.87,0,0,0-1.2,1,4.23,4.23,0,0,0-.3,1.61v11.6H28.21V8.83a3.44,3.44,0,0,0-.34-1.54A2.37,2.37,0,0,0,26.68,6.2,9.71,9.71,0,0,0,25,5.59a10.22,10.22,0,0,0-1.76-.32V3.4H38.73V5.27a12.13,12.13,0,0,0-1.8.24,11.4,11.4,0,0,0-1.6.4,1.87,1.87,0,0,0-1.2,1,4.23,4.23,0,0,0-.3,1.61v27a3.62,3.62,0,0,0,.3,1.56,2.62,2.62,0,0,0,1.2,1.11,7.26,7.26,0,0,0,1.6.47,10.55,10.55,0,0,0,1.8.26Z"/><path class="cls-1" d="M66.42,34.7a13.35,13.35,0,0,1-4.38,5,11,11,0,0,1-6.3,1.84,12.83,12.83,0,0,1-5.5-1.11,10.78,10.78,0,0,1-3.89-3A12.76,12.76,0,0,1,44.07,33a18.75,18.75,0,0,1-.75-5.35,15.63,15.63,0,0,1,.81-5,13.79,13.79,0,0,1,2.36-4.39,11.27,11.27,0,0,1,3.73-3,10.67,10.67,0,0,1,5-1.15,12,12,0,0,1,4.88.9,8.66,8.66,0,0,1,3.3,2.45,9.76,9.76,0,0,1,1.8,3.48,15.15,15.15,0,0,1,.6,4.35V27H48.57a20.17,20.17,0,0,0,.49,4.65,11,11,0,0,0,1.54,3.67,7.21,7.21,0,0,0,2.69,2.42,8.29,8.29,0,0,0,4,.89,7.3,7.3,0,0,0,4-1.1,11,11,0,0,0,3.28-4Zm-5.83-9.91a21,21,0,0,0-.25-3.16,9.69,9.69,0,0,0-.8-2.81,5.33,5.33,0,0,0-1.66-2,4.54,4.54,0,0,0-2.72-.77,5.65,5.65,0,0,0-4.6,2.3,10.72,10.72,0,0,0-2,6.41Z"/><path class="cls-1" d="M81.61,40.82H68.92V39.08l1.3-.12a6.65,6.65,0,0,0,1.13-.2,2,2,0,0,0,1.11-.83,3,3,0,0,0,.37-1.55V6.25a4,4,0,0,0-.41-1.78,3.47,3.47,0,0,0-1.07-1.3,5.32,5.32,0,0,0-1.74-.59,15.63,15.63,0,0,0-2-.31V.58L77.36,0l.37.4V36.07a3,3,0,0,0,.34,1.52,2.22,2.22,0,0,0,1.11.91,6.79,6.79,0,0,0,1.15.39,8.69,8.69,0,0,0,1.28.19Z"/><path class="cls-1" d="M97.06,40.82H84.38V39.08L85.67,39a6.65,6.65,0,0,0,1.13-.2,2,2,0,0,0,1.11-.83,3,3,0,0,0,.37-1.55V6.25a4,4,0,0,0-.41-1.78,3.38,3.38,0,0,0-1.07-1.3,5.32,5.32,0,0,0-1.74-.59,15.63,15.63,0,0,0-2-.31V.58L92.81,0l.37.4V36.07a3.11,3.11,0,0,0,.34,1.52,2.22,2.22,0,0,0,1.11.91,6.79,6.79,0,0,0,1.15.39,8.69,8.69,0,0,0,1.28.19Z"/><path class="cls-1" d="M125.69,27.55a17.24,17.24,0,0,1-.87,5.4,12.91,12.91,0,0,1-2.48,4.49,11.53,11.53,0,0,1-4.22,3.14,13.67,13.67,0,0,1-5.39,1,12.2,12.2,0,0,1-4.72-.94,11.74,11.74,0,0,1-4-2.73,13,13,0,0,1-2.73-4.31,15.21,15.21,0,0,1-1-5.71,14.19,14.19,0,0,1,3.55-10,13,13,0,0,1,18.32-.2Q125.7,21.44,125.69,27.55Zm-5.46.06a24,24,0,0,0-.39-4.18,13.3,13.3,0,0,0-1.19-3.73,7.25,7.25,0,0,0-2.22-2.63,5.58,5.58,0,0,0-3.35-1,5.93,5.93,0,0,0-3.48,1,7.34,7.34,0,0,0-2.34,2.74,11.92,11.92,0,0,0-1.18,3.66,24.08,24.08,0,0,0-.35,4,25.24,25.24,0,0,0,.41,4.68A13.26,13.26,0,0,0,107.45,36a7.39,7.39,0,0,0,2.26,2.65,5.68,5.68,0,0,0,3.37,1,5.88,5.88,0,0,0,5.23-3.19C119.59,34.29,120.23,31.35,120.23,27.61Z"/><path class="cls-1" d="M194,5.27a5.84,5.84,0,0,0-1.53.31,7.11,7.11,0,0,0-1.61.72,5.53,5.53,0,0,0-1.49,1.33,6.86,6.86,0,0,0-1,2.1q-1.87,6.09-4.35,14.22t-5.35,17.34h-2.43l-9.45-28.82L157,41.29H154.7q-2.61-9.23-5.41-19.15L145.55,8.83a4.88,4.88,0,0,0-.7-1.45,5,5,0,0,0-1.25-1.16,4.85,4.85,0,0,0-1.55-.67,9.9,9.9,0,0,0-1.59-.28V3.4h15.25V5.27a23.72,23.72,0,0,0-3.42.4c-.94.19-1.4.52-1.4,1a4.2,4.2,0,0,0,.07.7c.06.29.1.53.14.7q.6,2.33,2.14,7.67t4.57,16l9.34-27.81h2.58l9.42,28.41q1.9-6.56,3.28-11.45c.92-3.27,1.68-6.06,2.28-8.39.42-1.64.69-2.76.79-3.36a8.84,8.84,0,0,0,.16-1.55q0-.88-1.23-1.5a11.6,11.6,0,0,0-4-.82V3.4H194Z"/><path class="cls-1" d="M220.51,27.55a17.24,17.24,0,0,1-.87,5.4,12.91,12.91,0,0,1-2.48,4.49,11.64,11.64,0,0,1-4.23,3.14,13.62,13.62,0,0,1-5.38,1,12.25,12.25,0,0,1-4.73-.94,11.8,11.8,0,0,1-4-2.73,12.71,12.71,0,0,1-2.73-4.31,15.21,15.21,0,0,1-1-5.71,14.14,14.14,0,0,1,3.55-10,13,13,0,0,1,18.32-.2A13.53,13.53,0,0,1,220.51,27.55Zm-5.46.06a23.12,23.12,0,0,0-.4-4.18,13.31,13.31,0,0,0-1.18-3.73,7.45,7.45,0,0,0-2.22-2.63,5.61,5.61,0,0,0-3.36-1,5.92,5.92,0,0,0-3.47,1,7.34,7.34,0,0,0-2.34,2.74,12.2,12.2,0,0,0-1.19,3.66,24,24,0,0,0-.34,4,25.24,25.24,0,0,0,.41,4.68A13.26,13.26,0,0,0,202.27,36a7.37,7.37,0,0,0,2.25,2.65,5.7,5.7,0,0,0,3.37,1,5.87,5.87,0,0,0,5.23-3.19C214.41,34.29,215.05,31.35,215.05,27.61Z"/><path class="cls-1" d="M244.16,18.17a4.35,4.35,0,0,1-.66,2.38,2.23,2.23,0,0,1-2,1,3.06,3.06,0,0,1-2.25-.76,2.32,2.32,0,0,1-.78-1.69,5.63,5.63,0,0,1,.09-1.05c.06-.32.12-.63.17-.95a5.84,5.84,0,0,0-2.9,1A8.54,8.54,0,0,0,233,21V36.12a2.84,2.84,0,0,0,.36,1.51,2.19,2.19,0,0,0,1.12.87,7.4,7.4,0,0,0,1.7.39c.69.09,1.29.15,1.8.19v1.74H224.25V39.08L225.5,39a4.38,4.38,0,0,0,1.13-.21,1.89,1.89,0,0,0,1.09-.83,2.93,2.93,0,0,0,.36-1.54v-16a3.56,3.56,0,0,0-.39-1.6,3.22,3.22,0,0,0-1.06-1.27,3.74,3.74,0,0,0-1.19-.46,10.8,10.8,0,0,0-1.48-.2V15.08l8.65-.58.37.37v3.67h.13a11.76,11.76,0,0,1,3.64-3.25,7.68,7.68,0,0,1,3.67-1.1,3.6,3.6,0,0,1,2.7,1.08A4,4,0,0,1,244.16,18.17Z"/><path class="cls-1" d="M258.56,40.82H245.87V39.08l1.3-.12a6.65,6.65,0,0,0,1.13-.2,2,2,0,0,0,1.11-.83,3,3,0,0,0,.37-1.55V6.25a4,4,0,0,0-.41-1.78,3.47,3.47,0,0,0-1.07-1.3,5.32,5.32,0,0,0-1.74-.59,15.63,15.63,0,0,0-2-.31V.58L254.31,0l.37.4V36.07a3,3,0,0,0,.34,1.52,2.22,2.22,0,0,0,1.11.91,6.79,6.79,0,0,0,1.15.39,8.49,8.49,0,0,0,1.28.19Z"/><path class="cls-1" d="M290.3,40.34l-9.09.58-.4-.37V38.13l-.21-.06a10.77,10.77,0,0,1-3.38,2.51,9.45,9.45,0,0,1-4.15,1,9.78,9.78,0,0,1-4.28-1,10.67,10.67,0,0,1-3.59-2.79,13.75,13.75,0,0,1-2.47-4.37,17,17,0,0,1-.9-5.65,14.76,14.76,0,0,1,1-5.35A14,14,0,0,1,265.49,18a11.91,11.91,0,0,1,3.93-2.82,11.49,11.49,0,0,1,4.75-1.05,13.82,13.82,0,0,1,3.57.46,13.21,13.21,0,0,1,3,1.17V6.68a5.46,5.46,0,0,0-.37-2,3.12,3.12,0,0,0-1-1.39,5.25,5.25,0,0,0-2-.72c-.84-.15-1.74-.26-2.7-.34V.58L285.32,0l.39.4v35a3.2,3.2,0,0,0,.36,1.57,3.08,3.08,0,0,0,1,1.09,3.4,3.4,0,0,0,1.45.4c.63,0,1.21.08,1.74.1Zm-9.54-4.56V20.57a6.65,6.65,0,0,0-.69-1.48,6.47,6.47,0,0,0-1.18-1.45,6.8,6.8,0,0,0-1.79-1.09,6.12,6.12,0,0,0-2.4-.44,5.37,5.37,0,0,0-2.9.82,7.83,7.83,0,0,0-2.36,2.34A12.23,12.23,0,0,0,267.9,23a20.88,20.88,0,0,0-.56,5,17.72,17.72,0,0,0,.42,4,10.41,10.41,0,0,0,1.42,3.36,7.32,7.32,0,0,0,2.35,2.38,6.39,6.39,0,0,0,3.41.89,6.11,6.11,0,0,0,3.49-.92A11.08,11.08,0,0,0,280.76,35.78Z"/><path class="cls-1" d="M316.64,37.78a3.38,3.38,0,0,1-1.06,2.52,3.63,3.63,0,0,1-5.09,0,3.35,3.35,0,0,1-1.07-2.52,3.44,3.44,0,0,1,1.07-2.54,3.61,3.61,0,0,1,6.15,2.54ZM316.41,6c0,.87-.29,3.83-.87,8.85s-1.09,9.89-1.53,14.59H312q-.58-7-1.44-14.59c-.57-5-.85-8-.85-8.85a3.61,3.61,0,0,1,.94-2.54,3.42,3.42,0,0,1,4.86,0A3.61,3.61,0,0,1,316.41,6Z"/></g></g></svg>