<svg xmlns="http://www.w3.org/2000/svg" viewBox="0 0 318.64 43.63"><defs><style>.cls-1{fill:none;stroke:#fff;stroke-miterlimit:10;stroke-width:2px;}</style></defs><title>hello-stroke</title><g id="Layer_2" data-name="Layer 2"><g id="OBJECTS"><path class="cls-1" d="M39.73,41.84H24.2V40L26,39.81a5.51,5.51,0,0,0,1.64-.31,2.26,2.26,0,0,0,1.16-1,3.3,3.3,0,0,0,.37-1.67V23.54H11.63v13a3.6,3.6,0,0,0,.3,1.55,2.52,2.52,0,0,0,1.2,1.11,6.67,6.67,0,0,0,1.59.48,13.38,13.38,0,0,0,1.81.26v1.87H1V40l1.83-.16a5.6,5.6,0,0,0,1.65-.31,2.3,2.3,0,0,0,1.16-1A3.3,3.3,0,0,0,6,36.86v-27a3.41,3.41,0,0,0-.34-1.54,2.42,2.42,0,0,0-1.19-1.1,8.88,8.88,0,0,0-1.73-.6A10,10,0,0,0,1,6.3V4.43H16.53V6.3a12.42,12.42,0,0,0-1.81.24,13.13,13.13,0,0,0-1.59.39A1.88,1.88,0,0,0,11.93,8a4.23,4.23,0,0,0-.3,1.61V21.2H29.21V9.86a3.41,3.41,0,0,0-.34-1.54,2.38,2.38,0,0,0-1.19-1.1A9,9,0,0,0,26,6.62,10.22,10.22,0,0,0,24.2,6.3V4.43H39.73V6.3a12.13,12.13,0,0,0-1.8.24,13.39,13.39,0,0,0-1.6.39A1.88,1.88,0,0,0,35.13,8a4.23,4.23,0,0,0-.3,1.61v27a3.6,3.6,0,0,0,.3,1.55,2.52,2.52,0,0,0,1.2,1.11,6.63,6.63,0,0,0,1.6.48,13.06,13.06,0,0,0,1.8.26Z"/><path class="cls-1" d="M67.42,35.73a13.31,13.31,0,0,1-4.38,5,11,11,0,0,1-6.3,1.85,12.83,12.83,0,0,1-5.5-1.11,10.81,10.81,0,0,1-3.89-3A12.71,12.71,0,0,1,45.07,34a18.82,18.82,0,0,1-.75-5.36,15.72,15.72,0,0,1,.81-5,13.9,13.9,0,0,1,2.36-4.39,11.39,11.39,0,0,1,3.73-3,10.78,10.78,0,0,1,5-1.14,12.15,12.15,0,0,1,4.88.89,8.87,8.87,0,0,1,3.3,2.45,9.89,9.89,0,0,1,1.8,3.49,15,15,0,0,1,.6,4.35V28H49.57a20.17,20.17,0,0,0,.49,4.65,11.12,11.12,0,0,0,1.54,3.67,7.3,7.3,0,0,0,2.69,2.42,8.29,8.29,0,0,0,4,.88,7.22,7.22,0,0,0,4-1.1,10.81,10.81,0,0,0,3.28-4Zm-5.83-9.92a21,21,0,0,0-.25-3.15,9.85,9.85,0,0,0-.8-2.82,5.49,5.49,0,0,0-1.66-2,4.53,4.53,0,0,0-2.72-.76,5.65,5.65,0,0,0-4.6,2.3,10.69,10.69,0,0,0-2,6.4Z"/><path class="cls-1" d="M82.61,41.84H69.92V40.1l1.3-.12a6.76,6.76,0,0,0,1.13-.19A2,2,0,0,0,73.46,39a2.92,2.92,0,0,0,.37-1.54V7.28a4,4,0,0,0-.41-1.78,3.51,3.51,0,0,0-1.07-1.31,5.62,5.62,0,0,0-1.74-.58,16,16,0,0,0-2-.32V1.61L78.36,1l.37.39V37.1a3,3,0,0,0,.34,1.51,2.17,2.17,0,0,0,1.11.91,6.06,6.06,0,0,0,1.15.4,7.59,7.59,0,0,0,1.28.18Z"/><path class="cls-1" d="M98.06,41.84H85.38V40.1L86.67,40a6.76,6.76,0,0,0,1.13-.19A2,2,0,0,0,88.91,39a2.92,2.92,0,0,0,.37-1.54V7.28a4,4,0,0,0-.41-1.78A3.41,3.41,0,0,0,87.8,4.19a5.62,5.62,0,0,0-1.74-.58,16,16,0,0,0-2-.32V1.61L93.81,1l.37.39V37.1a3.07,3.07,0,0,0,.34,1.51,2.17,2.17,0,0,0,1.11.91,6.06,6.06,0,0,0,1.15.4,7.59,7.59,0,0,0,1.28.18Z"/><path class="cls-1" d="M126.69,28.58a17.13,17.13,0,0,1-.87,5.39,12.87,12.87,0,0,1-2.48,4.5,11.64,11.64,0,0,1-4.22,3.14,13.67,13.67,0,0,1-5.39,1A12.19,12.19,0,0,1,109,41.7,12,12,0,0,1,105,39a13.23,13.23,0,0,1-2.73-4.31,15.24,15.24,0,0,1-1-5.71,14.23,14.23,0,0,1,3.55-10,13,13,0,0,1,18.32-.2Q126.7,22.47,126.69,28.58Zm-5.46.05a24,24,0,0,0-.39-4.18,13.41,13.41,0,0,0-1.19-3.73,7.21,7.21,0,0,0-2.22-2.62,5.58,5.58,0,0,0-3.35-1,5.92,5.92,0,0,0-3.48,1,7.42,7.42,0,0,0-2.34,2.74,12.07,12.07,0,0,0-1.18,3.67,24.08,24.08,0,0,0-.35,4,25.24,25.24,0,0,0,.41,4.68A13.47,13.47,0,0,0,108.45,37a7.48,7.48,0,0,0,2.26,2.65,5.68,5.68,0,0,0,3.37,1,5.88,5.88,0,0,0,5.23-3.19C120.59,35.31,121.23,32.38,121.23,28.63Z"/><path class="cls-1" d="M195,6.3a6.21,6.21,0,0,0-1.53.3,7.61,7.61,0,0,0-1.61.73,5.37,5.37,0,0,0-1.49,1.33,6.86,6.86,0,0,0-1,2.1q-1.87,6.09-4.35,14.22t-5.35,17.34h-2.43L167.84,13.5,158,42.32H155.7q-2.61-9.24-5.41-19.16l-3.74-13.3a4.76,4.76,0,0,0-.7-1.45,5,5,0,0,0-1.25-1.16,4.85,4.85,0,0,0-1.55-.67,9.9,9.9,0,0,0-1.59-.28V4.43h15.25V6.3a22.39,22.39,0,0,0-3.42.4c-.94.19-1.4.51-1.4,1a4.2,4.2,0,0,0,.07.7c.06.29.1.52.14.7q.6,2.31,2.14,7.67t4.57,16L168.15,5h2.58l9.42,28.41q1.9-6.54,3.28-11.45c.92-3.26,1.68-6.06,2.28-8.38.42-1.64.69-2.76.79-3.37a8.74,8.74,0,0,0,.16-1.54q0-.9-1.23-1.5a11.36,11.36,0,0,0-4-.82V4.43H195Z"/><path class="cls-1" d="M221.51,28.58a17.13,17.13,0,0,1-.87,5.39,12.87,12.87,0,0,1-2.48,4.5,11.76,11.76,0,0,1-4.23,3.14,13.62,13.62,0,0,1-5.38,1,12.24,12.24,0,0,1-4.73-.93,12.09,12.09,0,0,1-4-2.73,12.91,12.91,0,0,1-2.73-4.31,15.24,15.24,0,0,1-1-5.71,14.19,14.19,0,0,1,3.55-10,13,13,0,0,1,18.32-.2A13.56,13.56,0,0,1,221.51,28.58Zm-5.46.05a23.12,23.12,0,0,0-.4-4.18,13.42,13.42,0,0,0-1.18-3.73,7.41,7.41,0,0,0-2.22-2.62,5.61,5.61,0,0,0-3.36-1,5.91,5.91,0,0,0-3.47,1,7.42,7.42,0,0,0-2.34,2.74,12.36,12.36,0,0,0-1.19,3.67,24,24,0,0,0-.34,4,25.24,25.24,0,0,0,.41,4.68A13.47,13.47,0,0,0,203.27,37a7.46,7.46,0,0,0,2.25,2.65,5.7,5.7,0,0,0,3.37,1,5.87,5.87,0,0,0,5.23-3.19C215.41,35.31,216.05,32.38,216.05,28.63Z"/><path class="cls-1" d="M245.16,19.19a4.38,4.38,0,0,1-.66,2.39,2.25,2.25,0,0,1-2,1,3.06,3.06,0,0,1-2.25-.76,2.34,2.34,0,0,1-.78-1.69,5.74,5.74,0,0,1,.09-1.06c.06-.31.12-.63.17-.95a5.87,5.87,0,0,0-2.9,1A8.51,8.51,0,0,0,234,22V37.15a2.8,2.8,0,0,0,.36,1.5,2.09,2.09,0,0,0,1.12.87,6.87,6.87,0,0,0,1.7.4q1,.13,1.8.18v1.74H225.25V40.1l1.25-.1a5.43,5.43,0,0,0,1.13-.21,1.93,1.93,0,0,0,1.09-.83,3,3,0,0,0,.36-1.54v-16a3.6,3.6,0,0,0-.39-1.61,3.12,3.12,0,0,0-1.06-1.26,3.52,3.52,0,0,0-1.19-.46,9.45,9.45,0,0,0-1.48-.2V16.11l8.65-.58.37.37v3.66h.13a11.85,11.85,0,0,1,3.64-3.24,7.7,7.7,0,0,1,3.67-1.11,3.6,3.6,0,0,1,2.7,1.08A4,4,0,0,1,245.16,19.19Z"/><path class="cls-1" d="M259.56,41.84H246.87V40.1l1.3-.12a6.76,6.76,0,0,0,1.13-.19,2,2,0,0,0,1.11-.84,2.92,2.92,0,0,0,.37-1.54V7.28a4,4,0,0,0-.41-1.78,3.51,3.51,0,0,0-1.07-1.31,5.62,5.62,0,0,0-1.74-.58,16,16,0,0,0-2-.32V1.61L255.31,1l.37.39V37.1a3,3,0,0,0,.34,1.51,2.17,2.17,0,0,0,1.11.91,6.06,6.06,0,0,0,1.15.4,7.44,7.44,0,0,0,1.28.18Z"/><path class="cls-1" d="M291.3,41.37l-9.09.58-.4-.37V39.15l-.21,0a10.77,10.77,0,0,1-3.38,2.51,9.45,9.45,0,0,1-4.15,1,9.79,9.79,0,0,1-4.28-1,10.64,10.64,0,0,1-3.59-2.78,13.69,13.69,0,0,1-2.47-4.38,16.85,16.85,0,0,1-.9-5.64,14.76,14.76,0,0,1,1-5.35A13.88,13.88,0,0,1,266.49,19a11.77,11.77,0,0,1,3.93-2.82,11.35,11.35,0,0,1,4.75-1.06,14.27,14.27,0,0,1,3.57.46,12.77,12.77,0,0,1,3,1.18V7.71a5.51,5.51,0,0,0-.37-2,3.09,3.09,0,0,0-1-1.38,5.08,5.08,0,0,0-2-.73,26.24,26.24,0,0,0-2.7-.33V1.61L286.32,1l.39.39V36.47a3.16,3.16,0,0,0,.36,1.56,3.11,3.11,0,0,0,1,1.1,3.27,3.27,0,0,0,1.45.39c.63,0,1.21.09,1.74.11Zm-9.54-4.56V21.59a6.6,6.6,0,0,0-.69-1.47,6.47,6.47,0,0,0-1.18-1.45,6.82,6.82,0,0,0-1.79-1.1,6.12,6.12,0,0,0-2.4-.43,5.45,5.45,0,0,0-2.9.81,7.87,7.87,0,0,0-2.36,2.35,12.23,12.23,0,0,0-1.54,3.76,20.82,20.82,0,0,0-.56,5.05,17.85,17.85,0,0,0,.42,4,10.6,10.6,0,0,0,1.42,3.36,7.29,7.29,0,0,0,2.35,2.37,6.31,6.31,0,0,0,3.41.9,6.18,6.18,0,0,0,3.49-.92A11.68,11.68,0,0,0,281.76,36.81Z"/><path class="cls-1" d="M317.64,38.81a3.39,3.39,0,0,1-1.06,2.52,3.63,3.63,0,0,1-5.09,0,3.36,3.36,0,0,1-1.07-2.52,3.61,3.61,0,0,1,7.22,0ZM317.41,7q0,1.32-.87,8.86T315,30.45H313q-.58-7-1.44-14.58T310.66,7a3.61,3.61,0,0,1,.94-2.53,3.39,3.39,0,0,1,4.86,0A3.57,3.57,0,0,1,317.41,7Z"/></g></g></svg>