<svg id="visual" viewBox="0 0 900 600" width="900" height="600" xmlns="http://www.w3.org/2000/svg" xmlns:xlink="http://www.w3.org/1999/xlink" version="1.1"><rect x="0" y="0" width="900" height="600" fill="#190f40"></rect><path d="M0 359L21.5 373.7C43 388.3 86 417.7 128.8 420.3C171.7 423 214.3 399 257.2 384.3C300 369.7 343 364.3 385.8 371C428.7 377.7 471.3 396.3 514.2 407.7C557 419 600 423 642.8 422.3C685.7 421.7 728.3 416.3 771.2 405.3C814 394.3 857 377.7 878.5 369.3L900 361L900 601L878.5 601C857 601 814 601 771.2 601C728.3 601 685.7 601 642.8 601C600 601 557 601 514.2 601C471.3 601 428.7 601 385.8 601C343 601 300 601 257.2 601C214.3 601 171.7 601 128.8 601C86 601 43 601 21.5 601L0 601Z" fill="#ff5600"></path><path d="M0 479L21.5 465.3C43 451.7 86 424.3 128.8 415.3C171.7 406.3 214.3 415.7 257.2 424.2C300 432.7 343 440.3 385.8 444.3C428.7 448.3 471.3 448.7 514.2 443.5C557 438.3 600 427.7 642.8 432C685.7 436.3 728.3 455.7 771.2 452.8C814 450 857 425 878.5 412.5L900 400L900 601L878.5 601C857 601 814 601 771.2 601C728.3 601 685.7 601 642.8 601C600 601 557 601 514.2 601C471.3 601 428.7 601 385.8 601C343 601 300 601 257.2 601C214.3 601 171.7 601 128.8 601C86 601 43 601 21.5 601L0 601Z" fill="#f60952"></path><path d="M0 511L21.5 500.2C43 489.3 86 467.7 128.8 461.2C171.7 454.7 214.3 463.3 257.2 472.8C300 482.3 343 492.7 385.8 497.7C428.7 502.7 471.3 502.3 514.2 502C557 501.7 600 501.3 642.8 502.8C685.7 504.3 728.3 507.7 771.2 505.2C814 502.7 857 494.3 878.5 490.2L900 486L900 601L878.5 601C857 601 814 601 771.2 601C728.3 601 685.7 601 642.8 601C600 601 557 601 514.2 601C471.3 601 428.7 601 385.8 601C343 601 300 601 257.2 601C214.3 601 171.7 601 128.8 601C86 601 43 601 21.5 601L0 601Z" fill="#cb0080"></path><path d="M0 537L21.5 527.8C43 518.7 86 500.3 128.8 500.7C171.7 501 214.3 520 257.2 524.7C300 529.3 343 519.7 385.8 510.7C428.7 501.7 471.3 493.3 514.2 489.5C557 485.7 600 486.3 642.8 494.7C685.7 503 728.3 519 771.2 525.5C814 532 857 529 878.5 527.5L900 526L900 601L878.5 601C857 601 814 601 771.2 601C728.3 601 685.7 601 642.8 601C600 601 557 601 514.2 601C471.3 601 428.7 601 385.8 601C343 601 300 601 257.2 601C214.3 601 171.7 601 128.8 601C86 601 43 601 21.5 601L0 601Z" fill="#842f9a"></path><path d="M0 536L21.5 537.5C43 539 86 542 128.8 541.8C171.7 541.7 214.3 538.3 257.2 537.3C300 536.3 343 537.7 385.8 540.7C428.7 543.7 471.3 548.3 514.2 548.5C557 548.7 600 544.3 642.8 543.3C685.7 542.3 728.3 544.7 771.2 547.3C814 550 857 553 878.5 554.5L900 556L900 601L878.5 601C857 601 814 601 771.2 601C728.3 601 685.7 601 642.8 601C600 601 557 601 514.2 601C471.3 601 428.7 601 385.8 601C343 601 300 601 257.2 601C214.3 601 171.7 601 128.8 601C86 601 43 601 21.5 601L0 601Z" fill="#003d98"></path></svg>