<svg id="visual" viewBox="0 0 900 300" width="900" height="300" xmlns="http://www.w3.org/2000/svg" xmlns:xlink="http://www.w3.org/1999/xlink" version="1.1"><rect x="0" y="0" width="900" height="300" fill="#ff6f61"></rect><path d="M0 190L13.7 188.7C27.3 187.3 54.7 184.7 82 186.2C109.3 187.7 136.7 193.3 163.8 191.8C191 190.3 218 181.7 245.2 177.8C272.3 174 299.7 175 327 180C354.3 185 381.7 194 409 199.2C436.3 204.3 463.7 205.7 491 202C518.3 198.3 545.7 189.7 573 183.5C600.3 177.3 627.7 173.7 654.8 174.7C682 175.7 709 181.3 736.2 186.8C763.3 192.3 790.7 197.7 818 193.8C845.3 190 872.7 177 886.3 170.5L900 164L900 301L886.3 301C872.7 301 845.3 301 818 301C790.7 301 763.3 301 736.2 301C709 301 682 301 654.8 301C627.7 301 600.3 301 573 301C545.7 301 518.3 301 491 301C463.7 301 436.3 301 409 301C381.7 301 354.3 301 327 301C299.7 301 272.3 301 245.2 301C218 301 191 301 163.8 301C136.7 301 109.3 301 82 301C54.7 301 27.3 301 13.7 301L0 301Z" fill="#ff7c00"></path><path d="M0 219L13.7 220.8C27.3 222.7 54.7 226.3 82 224C109.3 221.7 136.7 213.3 163.8 214.7C191 216 218 227 245.2 232.2C272.3 237.3 299.7 236.7 327 232.3C354.3 228 381.7 220 409 221.3C436.3 222.7 463.7 233.3 491 238.3C518.3 243.3 545.7 242.7 573 242.5C600.3 242.3 627.7 242.7 654.8 237.3C682 232 709 221 736.2 219.3C763.3 217.7 790.7 225.3 818 227.5C845.3 229.7 872.7 226.3 886.3 224.7L900 223L900 301L886.3 301C872.7 301 845.3 301 818 301C790.7 301 763.3 301 736.2 301C709 301 682 301 654.8 301C627.7 301 600.3 301 573 301C545.7 301 518.3 301 491 301C463.7 301 436.3 301 409 301C381.7 301 354.3 301 327 301C299.7 301 272.3 301 245.2 301C218 301 191 301 163.8 301C136.7 301 109.3 301 82 301C54.7 301 27.3 301 13.7 301L0 301Z" fill="#cc4b1f"></path><path d="M0 272L13.7 273.7C27.3 275.3 54.7 278.7 82 280C109.3 281.3 136.7 280.7 163.8 274.7C191 268.7 218 257.3 245.2 252.5C272.3 247.7 299.7 249.3 327 255.5C354.3 261.7 381.7 272.3 409 275.5C436.3 278.7 463.7 274.3 491 272C518.3 269.7 545.7 269.3 573 271.5C600.3 273.7 627.7 278.3 654.8 277.5C682 276.7 709 270.3 736.2 268.5C763.3 266.7 790.7 269.3 818 269.5C845.3 269.7 872.7 267.3 886.3 266.2L900 265L900 301L886.3 301C872.7 301 845.3 301 818 301C790.7 301 763.3 301 736.2 301C709 301 682 301 654.8 301C627.7 301 600.3 301 573 301C545.7 301 518.3 301 491 301C463.7 301 436.3 301 409 301C381.7 301 354.3 301 327 301C299.7 301 272.3 301 245.2 301C218 301 191 301 163.8 301C136.7 301 109.3 301 82 301C54.7 301 27.3 301 13.7 301L0 301Z" fill="#932121"></path></svg>