<svg id="visual" viewBox="0 0 900 400" width="900" height="400" xmlns="http://www.w3.org/2000/svg" xmlns:xlink="http://www.w3.org/1999/xlink" version="1.1"><rect x="0" y="0" width="900" height="400" fill="#190f40"></rect><path d="M0 194L11.5 198.7C23 203.3 46 212.7 69 208.5C92 204.3 115 186.7 138.2 179.7C161.3 172.7 184.7 176.3 207.8 181.2C231 186 254 192 277 196.5C300 201 323 204 346 208.7C369 213.3 392 219.7 415.2 217.3C438.3 215 461.7 204 484.8 198.5C508 193 531 193 554 198.2C577 203.3 600 213.7 623 213.2C646 212.7 669 201.3 692.2 200C715.3 198.7 738.7 207.3 761.8 210.8C785 214.3 808 212.7 831 204C854 195.3 877 179.7 888.5 171.8L900 164L900 401L888.5 401C877 401 854 401 831 401C808 401 785 401 761.8 401C738.7 401 715.3 401 692.2 401C669 401 646 401 623 401C600 401 577 401 554 401C531 401 508 401 484.8 401C461.7 401 438.3 401 415.2 401C392 401 369 401 346 401C323 401 300 401 277 401C254 401 231 401 207.8 401C184.7 401 161.3 401 138.2 401C115 401 92 401 69 401C46 401 23 401 11.5 401L0 401Z" fill="#17003a"></path><path d="M0 227L11.5 228.7C23 230.3 46 233.7 69 229.5C92 225.3 115 213.7 138.2 217.3C161.3 221 184.7 240 207.8 241C231 242 254 225 277 224.3C300 223.7 323 239.3 346 245C369 250.7 392 246.3 415.2 246.5C438.3 246.7 461.7 251.3 484.8 244.2C508 237 531 218 554 214.5C577 211 600 223 623 225.8C646 228.7 669 222.3 692.2 217.5C715.3 212.7 738.7 209.3 761.8 212.7C785 216 808 226 831 229.2C854 232.3 877 228.7 888.5 226.8L900 225L900 401L888.5 401C877 401 854 401 831 401C808 401 785 401 761.8 401C738.7 401 715.3 401 692.2 401C669 401 646 401 623 401C600 401 577 401 554 401C531 401 508 401 484.8 401C461.7 401 438.3 401 415.2 401C392 401 369 401 346 401C323 401 300 401 277 401C254 401 231 401 207.8 401C184.7 401 161.3 401 138.2 401C115 401 92 401 69 401C46 401 23 401 11.5 401L0 401Z" fill="#200c4c"></path><path d="M0 239L11.5 242.7C23 246.3 46 253.7 69 257.8C92 262 115 263 138.2 267.2C161.3 271.3 184.7 278.7 207.8 280.8C231 283 254 280 277 272.8C300 265.7 323 254.3 346 251.7C369 249 392 255 415.2 254.2C438.3 253.3 461.7 245.7 484.8 250.7C508 255.7 531 273.3 554 273C577 272.7 600 254.3 623 245.8C646 237.3 669 238.7 692.2 241.5C715.3 244.3 738.7 248.7 761.8 256.5C785 264.3 808 275.7 831 279.7C854 283.7 877 280.3 888.5 278.7L900 277L900 401L888.5 401C877 401 854 401 831 401C808 401 785 401 761.8 401C738.7 401 715.3 401 692.2 401C669 401 646 401 623 401C600 401 577 401 554 401C531 401 508 401 484.8 401C461.7 401 438.3 401 415.2 401C392 401 369 401 346 401C323 401 300 401 277 401C254 401 231 401 207.8 401C184.7 401 161.3 401 138.2 401C115 401 92 401 69 401C46 401 23 401 11.5 401L0 401Z" fill="#2b175e"></path><path d="M0 305L11.5 304C23 303 46 301 69 301C92 301 115 303 138.2 306C161.3 309 184.7 313 207.8 309.8C231 306.7 254 296.3 277 289.3C300 282.3 323 278.7 346 283C369 287.3 392 299.7 415.2 301C438.3 302.3 461.7 292.7 484.8 292.3C508 292 531 301 554 302.8C577 304.7 600 299.3 623 292.3C646 285.3 669 276.7 692.2 278.7C715.3 280.7 738.7 293.3 761.8 299.8C785 306.3 808 306.7 831 306C854 305.3 877 303.7 888.5 302.8L900 302L900 401L888.5 401C877 401 854 401 831 401C808 401 785 401 761.8 401C738.7 401 715.3 401 692.2 401C669 401 646 401 623 401C600 401 577 401 554 401C531 401 508 401 484.8 401C461.7 401 438.3 401 415.2 401C392 401 369 401 346 401C323 401 300 401 277 401C254 401 231 401 207.8 401C184.7 401 161.3 401 138.2 401C115 401 92 401 69 401C46 401 23 401 11.5 401L0 401Z" fill="#362272"></path><path d="M0 319L11.5 316.8C23 314.7 46 310.3 69 312.8C92 315.3 115 324.7 138.2 331.5C161.3 338.3 184.7 342.7 207.8 339.3C231 336 254 325 277 323C300 321 323 328 346 333.5C369 339 392 343 415.2 341.2C438.3 339.3 461.7 331.7 484.8 327C508 322.3 531 320.7 554 318.8C577 317 600 315 623 320C646 325 669 337 692.2 337.7C715.3 338.3 738.7 327.7 761.8 321.7C785 315.7 808 314.3 831 313.2C854 312 877 311 888.5 310.5L900 310L900 401L888.5 401C877 401 854 401 831 401C808 401 785 401 761.8 401C738.7 401 715.3 401 692.2 401C669 401 646 401 623 401C600 401 577 401 554 401C531 401 508 401 484.8 401C461.7 401 438.3 401 415.2 401C392 401 369 401 346 401C323 401 300 401 277 401C254 401 231 401 207.8 401C184.7 401 161.3 401 138.2 401C115 401 92 401 69 401C46 401 23 401 11.5 401L0 401Z" fill="#412d86"></path><path d="M0 352L11.5 350.3C23 348.7 46 345.3 69 345.2C92 345 115 348 138.2 353.8C161.3 359.7 184.7 368.3 207.8 370C231 371.7 254 366.3 277 363.7C300 361 323 361 346 358C369 355 392 349 415.2 347.8C438.3 346.7 461.7 350.3 484.8 351.3C508 352.3 531 350.7 554 352.5C577 354.3 600 359.7 623 359.2C646 358.7 669 352.3 692.2 349C715.3 345.7 738.7 345.3 761.8 347.5C785 349.7 808 354.3 831 354.2C854 354 877 349 888.5 346.5L900 344L900 401L888.5 401C877 401 854 401 831 401C808 401 785 401 761.8 401C738.7 401 715.3 401 692.2 401C669 401 646 401 623 401C600 401 577 401 554 401C531 401 508 401 484.8 401C461.7 401 438.3 401 415.2 401C392 401 369 401 346 401C323 401 300 401 277 401C254 401 231 401 207.8 401C184.7 401 161.3 401 138.2 401C115 401 92 401 69 401C46 401 23 401 11.5 401L0 401Z" fill="#4c399a"></path></svg>