<svg xmlns="http://www.w3.org/2000/svg" xmlns:xlink="http://www.w3.org/1999/xlink" viewBox="0 0 801 372"><defs><style>.cls-1{fill:url(#linear-gradient);}</style><linearGradient id="linear-gradient" x1="400.5" y1="332" x2="400.5" y2="99" gradientUnits="userSpaceOnUse"><stop offset="0.01" stop-color="#846dc2"/><stop offset="0.09" stop-color="#7760b9"/><stop offset="0.32" stop-color="#5b44a4"/><stop offset="0.55" stop-color="#463096"/><stop offset="0.78" stop-color="#3a248d"/><stop offset="1" stop-color="#36208a"/></linearGradient></defs><title>mountains3Asset 13</title><g id="Layer_2" data-name="Layer 2"><g id="OBJECTS"><path class="cls-1" d="M0,198s43-69,61-72,39,0,39,0,74.2,65,96.1,72S311,206,311,206l67.93-14L430,175l13.81-19,16.8-5.67H469S485,123,489,110a59.12,59.12,0,0,1,13-22s1-16,7-17.5,16.5,0,16.5,0L536,72l29-35s11.5-17,17-19.5S596.5,0,596.5,0H620l39,15s15.5,31.5,27,37.5,24,18,24,18,17,36.5,25,43S757,131,757,131l44,47V372H0Z"/></g></g></svg>