<svg xmlns="http://www.w3.org/2000/svg" xmlns:xlink="http://www.w3.org/1999/xlink" viewBox="0 0 632 209.67"><defs><style>.cls-1{isolation:isolate;}.cls-2{fill:url(#linear-gradient);}.cls-3{fill:#fff;opacity:0.1;mix-blend-mode:overlay;}</style><linearGradient id="linear-gradient" x1="316" y1="137.67" x2="316" y2="15.67" gradientUnits="userSpaceOnUse"><stop offset="0" stop-color="#5741a2"/><stop offset="0.62" stop-color="#38267a"/><stop offset="1" stop-color="#281866"/></linearGradient></defs><title>mountains2Asset 14</title><g class="cls-1"><g id="Layer_2" data-name="Layer 2"><g id="OBJECTS"><path class="cls-2" d="M632,174s-96.83-33-110.42-37.84-57.91-33.5-67.41-37.5-35.74-4-35.74-4l-11.35-9.34L385.34,80l-8.56-3.33L355,56s-21.22-1.33-33.76-4-34.54-6.67-34.54-6.67L241.33,24.67,186.67,4,148,0,132.67,14.67s-10.67,32.66-20,38-32,17-32,17L56,87H35.33L0,120.57v89.1H632Z"/><path class="cls-3" d="M91.33,69.67l36-15.67L156,19.47,186.67,4,148,0,132.67,14.67s-10.67,32.66-20,38-32,17-32,17L56,87l11.33.32Z"/></g></g></g></svg>