<svg xmlns="http://www.w3.org/2000/svg" xmlns:xlink="http://www.w3.org/1999/xlink" viewBox="0 0 801 372"><defs><style>.cls-1{fill:url(#linear-gradient);}.cls-2{fill:#272763;}.cls-2,.cls-3{opacity:0.33;}.cls-3{fill:#222265;}</style><linearGradient id="linear-gradient" x1="400.5" y1="332" x2="400.5" y2="99" gradientUnits="userSpaceOnUse"><stop offset="0.01" stop-color="#846dc2"/><stop offset="0.09" stop-color="#7760b9"/><stop offset="0.32" stop-color="#5b44a4"/><stop offset="0.55" stop-color="#463096"/><stop offset="0.78" stop-color="#3a248d"/><stop offset="1" stop-color="#36208a"/></linearGradient></defs><title>mountains-3-3Asset 39</title><g id="Layer_2" data-name="Layer 2"><g id="OBJECTS"><path class="cls-1" d="M0,198.57a1.93,1.93,0,0,1,.31-1.06C4.18,191.36,43.89,128.85,61,126c16.21-2.7,34.85-.54,38.4-.08a2,2,0,0,1,1,.47c6.18,5.39,74.74,64.93,95.65,71.61,21.3,6.81,109.82,7.94,114.69,8a2,2,0,0,0,.42,0L378.82,192A.9.9,0,0,0,379,192L429.4,175.2a2,2,0,0,0,1-.72l13.07-18a2,2,0,0,1,1-.71l15.88-5.36a2,2,0,0,1,.64-.11h6.87a2,2,0,0,0,1.72-1c2.9-5,15.91-27.81,19.46-39.34a59.24,59.24,0,0,1,12.54-21.51,2,2,0,0,0,.51-1.17c.27-3.07,1.69-15.51,6.95-16.82,6-1.5,16.5,0,16.5,0l9.39,1.34a2,2,0,0,0,1.82-.7l28.23-34.07.11-.14c.8-1.18,11.66-17,17-19.43,4.67-2.12,11.85-13.24,13.92-16.56a2,2,0,0,1,1.7-.94h22a2.23,2.23,0,0,1,.72.13l37.93,14.59a2,2,0,0,1,1.06,1C661.68,20.31,675.51,47,686,52.5s21.84,16,23.73,17.74a2,2,0,0,1,.43.6c1.73,3.68,17.29,36.53,24.84,42.66s20.52,16.34,21.88,17.41a2.09,2.09,0,0,1,.22.2l43.36,46.31a2,2,0,0,1,.54,1.37V370a2,2,0,0,1-2,2H2a2,2,0,0,1-2-2Z"/><path class="cls-2" d="M558.62,156.68l23.84,36.43a1.74,1.74,0,0,1,.18.33l8.7,21a2,2,0,0,0,2.33,1.17l42.6-10.87a2,2,0,0,0,1.16-3c-6.74-10.06-33.48-49.49-43.93-58.41-10.76-9.19-28-17.78-31.39-19.45a2,2,0,0,1-.91-.91L536.47,72.94A2,2,0,0,0,535,71.85L525.5,70.5A68,68,0,0,0,512.19,70a2,2,0,0,0-1.47,3.08c4.93,7.47,18.91,29.57,21.78,43.93,3.34,16.68,23.94,37.45,25.86,39.36A2,2,0,0,1,558.62,156.68Z"/><path class="cls-2" d="M690.5,85l21,61,4.5-16.5,37.5,36L801,191V178l-44-47s-14-11-22-17.5-25-43-25-43-12.5-12-24-18S659,15,659,15l17,46Z"/><path class="cls-3" d="M3.5,230.87l24-27.28a.9.9,0,0,0,.15-.19l22.83-33.5a.82.82,0,0,0,.12-.2l23.52-44.94h0A101,101,0,0,0,61,126C43.89,128.85,4.18,191.36.31,197.51A1.93,1.93,0,0,0,0,198.57v31A2,2,0,0,0,3.5,230.87Z"/></g></g></svg>