<svg xmlns="http://www.w3.org/2000/svg" xmlns:xlink="http://www.w3.org/1999/xlink" viewBox="0 0 781.33 194.83"><defs><style>.cls-1{fill:url(#linear-gradient);}.cls-2{fill:#272763;opacity:0.15;}</style><linearGradient id="linear-gradient" x1="390.67" y1="222.67" x2="390.67" y2="81.6" gradientUnits="userSpaceOnUse"><stop offset="0" stop-color="#aa94d0"/><stop offset="0.18" stop-color="#957ec8"/><stop offset="0.53" stop-color="#725abb"/><stop offset="0.82" stop-color="#5c44b3"/><stop offset="1" stop-color="#543cb0"/></linearGradient></defs><title>mountains4Asset 24</title><g id="Layer_2" data-name="Layer 2"><g id="OBJECTS"><polygon class="cls-1" points="781.33 9.5 750 0 734.67 4.75 695.33 16.67 621.33 69.33 515.33 85.33 448.39 79.33 417.56 72 400.33 75.33 337.26 58 315.33 46.67 285.33 47.33 271.33 58 252 58.67 183.33 77.33 98.67 90 0 109.47 0 194.83 781.33 194.83 781.33 9.5"/><polygon class="cls-2" points="375 103.33 338.67 125.67 267.33 133.67 213.75 194.83 550.39 194.83 517.5 85.01 515.33 85.33 448.39 79.33 417.56 72 400.33 75.33 337.26 58 375 90 375 103.33"/></g></g></svg>