<svg xmlns="http://www.w3.org/2000/svg" xmlns:xlink="http://www.w3.org/1999/xlink" viewBox="0 0 777.8 202.19"><defs><style>.cls-1{fill:url(#linear-gradient);}</style><linearGradient id="linear-gradient" x1="388.9" y1="186.2" x2="388.9" y2="-2.51" gradientUnits="userSpaceOnUse"><stop offset="0.2" stop-color="#3f2d7f"/><stop offset="0.4" stop-color="#352470"/><stop offset="0.77" stop-color="#26185a"/><stop offset="1" stop-color="#201352"/></linearGradient></defs><title>mountains1Asset 11</title><g id="Layer_2" data-name="Layer 2"><g id="OBJECTS"><path class="cls-1" d="M0,170.86s165.13-48.33,166.13-49,10,.33,13,0,27.34-12,28.67-12.67,9,.34,15,5,8.33-2,9.33-1,10.34,11.34,11,10,5.34.67,7.34,0,16.33-9.33,23.66-13,13.34-2.33,26.67-4,33-8.33,36.33-9.33,15.34,4.67,25.47,6.33,13.87-3,18.87-2.66c11,.73,25-4,28.84-5.34s42.28-11.33,42.28-11.33l108.54-64L583.8,0s21.33,5.19,31.33,1.19S639.8,4.53,639.8,4.53s29.33,7.33,42,11.33,33.33,21.33,33.33,21.33l26.67,13h36v152H0Z"/></g></g></svg>