<svg xmlns="http://www.w3.org/2000/svg" viewBox="0 0 500.25 152"><defs><style>.cls-1{fill:#19113f;}</style></defs><title>trees2Asset 17</title><g id="Layer_2" data-name="Layer 2"><g id="OBJECTS"><path class="cls-1" d="M500.25,86.25s-12.75-8-14-12.25.75-8.25,0-12.75a58,58,0,0,1-.42-10.5l-2.58-13A36.09,36.09,0,0,1,481,47.5c-2,5.25-4.25,11.25-3.25,14.5s-1.25,8-1.25,8,1,10-1.25,8-3.75-7.25-3.75-7.25,1.75,7.75-1.5,6-5-7-5-7-2.75,5-4,4-6,0-7.5-3.25-4-12.25-7-14.75-4-9-5.75-9-2.25,11-3.5,13.25a61.75,61.75,0,0,0-3,7.75s-2-6.75-3.25-10.5a75.41,75.41,0,0,1-3-9.75,15.57,15.57,0,0,0-2.75-6.5,32.47,32.47,0,0,0-1.75,7c-.25,3,0,11.5,0,11.5l-.11,5.5s-7.89-6-8.14-12.5-3-7.5-3-7.5-2.75-4-4.25-5.75S407.25,23,405.75,21s-3.5-11.5-3.5-11.5-2,10.5-2.5,16.5-2,14-2,14L394,52.75,390,57a105,105,0,0,0-2.25-12.25c-2-9-2.75-11.75-2.75-12.5s-2.25-20-4-22.75a20.23,20.23,0,0,0-2,4.25c-1.25,3.25-3.25,7.75-3.25,9S374.5,33,374.5,33l-2,8s-3-4.5-3.5-8a103.4,103.4,0,0,0-2.5-10.75c-.25-.75-2-22.25-2-22.25a58.15,58.15,0,0,0-6.75,18.75c-1.5,10-2,6.25-2.75,13.75s-1.25,18.25-1.25,18.25-4-10.5-4.75-11.75,0-13.25,0-13.25.83-16.5-.33-18.75-2.17,4-2.17,4-.75,10.5-4.5,15.25-3,14.25-3,14.25L336.25,51v6.5s-1.5-11-3.5-15.5-2-15.75-2-15.75a13.26,13.26,0,0,0-2.75,7,88.52,88.52,0,0,0,0,12S324,51,324,53c0,0-.75-9-2-9.88s-1,3.63-2.25,3.63-6-14.5-6-14.5l-1.25-5s.5.5,0,7.25a91.42,91.42,0,0,0,0,12.75l-4-2.75s-.75-10.75-2-11.5-1.25,6.75-1.75,8-3.5,2.25-3.75,10.5-1.75,12-1.75,12-4.5-4-5.25,2.5-7,3.5-7,3.5-2.75,6.25-5,3.75S274.5,79,272.75,76s.5-5.5,0-9.5-1.5-6.25-2-9,0-12.5,0-12.5-3.5-1.75-3.5,4,.25,9.75-2,14.25l-3.75,7.5s-.25-4.25,0-9,1.28-10.25-.11-10.25-1.39,1-2.14,5.75A140.9,140.9,0,0,1,255.5,71.5s-1-4.75-1.5-9a23.75,23.75,0,0,1,0-6.75s-3.75.25-3.75,3.25S248,70.25,248,70.25l-1.5,5.5s-3-5.5-2.25-9.25-.12-14.25-.12-14.25a7.44,7.44,0,0,0-3.13,6c0,4,.75,8.5,0,10s-3,3.75-3,5.25V79s-7.75,3.75-7.75,4.5a32.64,32.64,0,0,1-1.75,4.75s-6.75-.75-8-3.5S215.75,73,215.75,73a24.77,24.77,0,0,1-1.25,5.5c-1,2.75-.5,5.5-1.75,9.75s-2,5-3,3.75-4-4.25-3-8.5-.25-1.75-1.25-8.75S204,63,204,63a21.58,21.58,0,0,0-4.25,10c-1,6.25,2.25,8,0,11.75s-4.25,5.59-4.25,7.8-1,5-1.5,3.7-1-7.75-3.25-10-1,4.5-1.75,5.25-4,3.75-4,3.75,1-4.75,0-8,.25-10,0-11.25a50.8,50.8,0,0,0-2.39-5.75S180,76,179.1,78.75s-3.64,0-3.5,4.75-1.35,12-2.35,11.75-2.08-6-2-7.25,1.71-2.75,0-8.5-3.79-9.25-3.75-10.25,0,3,0,3.75-.47,10-.84,10.75-1.12.5-2.37,8.75-3,8.8-3.5,8.78-1.24-13.53-1.24-13.53l-3-6.75s-1.61,13.5-4.18,13.5-5.63-5.25-5.72-6.25-6.1-7.25-6.6-12a36.86,36.86,0,0,0-1.25-7s-4.92,8.5-4.46,13.5-2.06,13.75-2.06,13.75S126,91.75,124,85s-5.21-15.25-5.21-15.25S114,84.5,115.24,87,107,94,108,97s-8.56,4.28-8.56,4.28L94,94.75l-4.25-12s-3.39,10.5-4.82,13.75-4.36,9.22-4.36,9.22l-7.07-10L69.19,87.5S66,97.75,66.48,100,64,104.68,64,105.47s-3.5-1.12-3.5-1.12V94.25L57.25,85S55,93.5,55.37,94.25s-1.37,7-1.37,7l-6.81,3.07-4.69,6.16s-.75-5.76-1.75-10.51a32.76,32.76,0,0,1,0-10.5s-4.5,4.62-3.25,13.44.5,13.44-1.25,15.37-4.75-.81-5.75,5.19-5.75,9.75-6.75,10.5S11,141.25,11,142,0,152,0,152H497.33Z"/></g></g></svg>