<svg xmlns="http://www.w3.org/2000/svg" viewBox="0 0 780.93 638.87"><defs><style>.cls-1{fill:#19113f;}.cls-2{fill:#190f40;}</style></defs><title>trees-curve-mobileAsset 44</title><g id="Layer_2" data-name="Layer 2"><g id="OBJECTS"><path class="cls-1" d="M337.13,156.25s-7.36-21-11.85-27.33-13.48-11.35-13.48-11.35-11.67,1.31-15.33,0-3.67-9.39-6-10.85-4.34-17.47-9.67-18.47c-.67,5.34,4.33,12.06-2,15.7s-9.33,8-9.33,10.84-3,7.46-3,7.46-1.58-4.62-5-5.59-4.86.75-4.86.75l-1-2.87s-4.69,2.28-6.47.18-3.4-3.8-3.4-3.8-3.72,2.68-4.85.08-1.94-8.26-3.4-9.23,0-13.52,0-13.52-4,7.21-4.37,12.07-2.75,7.13-4.85,10.68-.81,7.14-2.27,11.25-5.34,6.06-6,3.15,1.14-4.86-2.58-4.21a20.08,20.08,0,0,0-6,1.94,4.89,4.89,0,0,0-1.62-5.72c-3.07-2.37-2.59,1.48-5.34-2.87s-7.44.62-10.19-2.19-4.21-7.58-4.21-7.58,0-5.1-1.13-7.69-4.21-1.94-4.21-1.94-.32-5.5-3.56-9.39-1.78-5.66-2.75-7.93-3.72-3.85-4.21-2.57-.65,7.43-3.56,10.5-5.66-2.42-8.09,1.62a81.12,81.12,0,0,1-4.53,6.8s-6.47-2.59-7.6-4.37-1-4.37-2.43-5.18-2.43-13.92-4.21-14.56,0,4.08-1,5.19-7.77-.66-7.61,6.62-4.53-4.05-4.53-4.05l-2.75-6s-1.94-14.24-3.23-12.14S123,70.54,123,70.54a9.28,9.28,0,0,0-4,6.64c-.65,4.69-1.13,8.09-1.62,8.74s-2.42-3.08-3.56-3.56-1.45-19.91-2.42-19.91-2.92,6-2.92,7.28-.48,8.58-2.58,8.74-4.54-.65-5.67.49-4-12.46-6.15-8.74a31.41,31.41,0,0,0-2.59,5.34l-3.23-5.34s-2.11-19.74-4.37-18.61-1.94,7.61-1.94,8.25a5.46,5.46,0,0,1-1.3,5.51,14.37,14.37,0,0,0-3.07,7.28A12.25,12.25,0,0,1,75.73,76L72,67.79s-2.75-11.65-3.08-12.3S66.34,55,67,61s.16,8.73-1.29,9.7-6.64-4.85-6.64-4.85l-3.4-6.15s-2.42.16-2.1,6a26.6,26.6,0,0,1-1.13,10.19c-.33,1-4.53-12-4.53-12.46s-4-5.66-4.37-6.47S46,40.77,42.72,42.71s-3.24,8.42-2.91,9.87,1.45,9.55-1.14,10.84a7.91,7.91,0,0,0-4,5.34c-.16,1.3-3.24-8.57-3.24-8.57s-5.18,0-6.47-2.27S22,48.21,22,48.21s-1.14-8.09-2.75-3.56.16,8.26-1.14,10.36S13.59,57,13.59,57l-4-5.5L0,41.74V156.25Z"/><path class="cls-1" d="M780.93,86.25s-12.75-8-14-12.25.75-8.25,0-12.75a58,58,0,0,1-.42-10.5l-2.58-13a36.09,36.09,0,0,1-2.25,9.75c-2,5.25-4.25,11.25-3.25,14.5s-1.25,8-1.25,8,1,10-1.25,8-3.75-7.25-3.75-7.25,1.75,7.75-1.5,6-5-7-5-7-2.75,5-4,4-6,0-7.5-3.25-4-12.25-7-14.75-4-9-5.75-9-2.25,11-3.5,13.25a61.75,61.75,0,0,0-3,7.75s-2-6.75-3.25-10.5a75.41,75.41,0,0,1-3-9.75,15.57,15.57,0,0,0-2.75-6.5,32.47,32.47,0,0,0-1.75,7c-.25,3,0,11.5,0,11.5l-.11,5.5s-7.89-6-8.14-12.5-3-7.5-3-7.5-2.75-4-4.25-5.75S687.93,23,686.43,21s-3.5-11.5-3.5-11.5-2,10.5-2.5,16.5-2,14-2,14l-3.75,12.75-4,4.25a105,105,0,0,0-2.25-12.25c-2-9-2.75-11.75-2.75-12.5s-2.25-20-4-22.75a20.23,20.23,0,0,0-2,4.25c-1.25,3.25-3.25,7.75-3.25,9S655.18,33,655.18,33l-2,8s-3-4.5-3.5-8a103.4,103.4,0,0,0-2.5-10.75c-.25-.75-2-22.25-2-22.25a58.15,58.15,0,0,0-6.75,18.75c-1.5,10-2,6.25-2.75,13.75s-1.25,18.25-1.25,18.25-4-10.5-4.75-11.75,0-13.25,0-13.25.84-16.5-.33-18.75-2.17,4-2.17,4-.75,10.5-4.5,15.25-3,14.25-3,14.25L616.93,51v6.5s-1.5-11-3.5-15.5-2-15.75-2-15.75a13.26,13.26,0,0,0-2.75,7,88.52,88.52,0,0,0,0,12s-4,5.75-4,7.75c0,0-.75-9-2-9.88s-1,3.63-2.25,3.63-6-14.5-6-14.5l-1.25-5s.5.5,0,7.25a91.42,91.42,0,0,0,0,12.75l-4-2.75s-.75-10.75-2-11.5-1.25,6.75-1.75,8-3.5,2.25-3.75,10.5-1.75,12-1.75,12-4.5-4-5.25,2.5-7,3.5-7,3.5-2.75,6.25-5,3.75S555.18,79,553.43,76s.5-5.5,0-9.5-1.5-6.25-2-9,0-12.5,0-12.5-3.5-1.75-3.5,4,.25,9.75-2,14.25l-3.75,7.5s-.25-4.25,0-9,1.28-10.25-.11-10.25-1.39,1-2.14,5.75a140.9,140.9,0,0,1-3.75,14.25s-1-4.75-1.5-9a23.75,23.75,0,0,1,0-6.75s-3.75.25-3.75,3.25-2.25,11.25-2.25,11.25l-1.5,5.5s-3-5.5-2.25-9.25-.12-14.25-.12-14.25a7.44,7.44,0,0,0-3.13,6c0,4,.75,8.5,0,10s-3,3.75-3,5.25V79s-7.75,3.75-7.75,4.5a32.64,32.64,0,0,1-1.75,4.75s-6.75-.75-8-3.5S496.43,73,496.43,73a24.77,24.77,0,0,1-1.25,5.5c-1,2.75-.5,5.5-1.75,9.75s-2,5-3,3.75-4-4.25-3-8.5-.25-1.75-1.25-8.75S484.68,63,484.68,63a21.58,21.58,0,0,0-4.25,10c-1,6.25,2.25,8,0,11.75s-4.25,5.59-4.25,7.8-1,5-1.5,3.7-1-7.75-3.25-10-1,4.5-1.75,5.25-4,3.75-4,3.75,1-4.75,0-8,.25-10,0-11.25a51.11,51.11,0,0,0-2.38-5.75s-2.66,5.75-3.51,8.5-3.65,0-3.5,4.75-1.36,12-2.36,11.75-2.07-6-2-7.25,1.71-2.75,0-8.5-3.8-9.25-3.76-10.25,0,3,0,3.75-.47,10-.84,10.75-1.12.5-2.37,8.75-3,8.8-3.5,8.78-1.24-13.53-1.24-13.53l-3-6.75S435.57,94.5,433,94.5s-5.62-5.25-5.72-6.25-6.1-7.25-6.6-12a36.86,36.86,0,0,0-1.25-7s-4.92,8.5-4.46,13.5-2.06,13.75-2.06,13.75-6.24-4.75-8.23-11.5-5.21-15.25-5.21-15.25S394.66,84.5,395.92,87s-8.22,7-7.23,10-8.56,4.28-8.56,4.28l-5.45-6.53-4.25-12s-3.38,10.5-4.81,13.75-4.36,9.22-4.36,9.22l-7.08-10-4.31-8.25s-3.23,10.25-2.71,12.5-2.48,4.68-2.48,5.47-3.5-1.12-3.5-1.12V94.25L337.93,85s-2.25,8.5-1.87,9.25-1.38,7-1.38,7l-6.8,3.07-4.7,6.16s-.75-5.76-1.75-10.51a32.76,32.76,0,0,1,0-10.5s-4.5,4.62-3.25,13.44.5,13.44-1.25,15.37-4.75-.81-5.75,5.19-5.75,9.75-6.75,10.5-12.75,7.25-12.75,8-11,10-11,10H778Z"/><path class="cls-2" d="M762.63,633c-105-51.4-187.75-51.86-244.79-42.15-91.78,15.62-121.51,58.35-212.93,45.65C243.12,628,221,603.47,149.81,599c-61-3.8-111.06,10-143.5,22.11V139.25H761Z"/></g></g></svg>