<svg xmlns="http://www.w3.org/2000/svg" viewBox="0 0 761.11 311.71"><defs><style>.cls-1{fill:#19113f;}</style></defs><title>trees2Asset 18</title><g id="Layer_2" data-name="Layer 2"><g id="OBJECTS"><path class="cls-1" d="M337.13,114.51s-7.36-21-11.85-27.33S311.8,75.83,311.8,75.83s-11.67,1.31-15.33,0-3.67-9.39-6-10.85-4.34-17.47-9.67-18.47c-.67,5.33,4.33,12.06-2,15.7s-9.33,8.05-9.33,10.84-3,7.46-3,7.46-1.58-4.62-5-5.59-4.86.75-4.86.75l-1-2.87s-4.69,2.28-6.47.18-3.4-3.81-3.4-3.81-3.72,2.69-4.85.09S239,61,237.54,60s0-13.52,0-13.52-4,7.21-4.37,12.07-2.75,7.13-4.85,10.68-.81,7.13-2.27,11.25-5.34,6.06-6,3.15,1.14-4.86-2.58-4.21a20.08,20.08,0,0,0-6,1.94,4.89,4.89,0,0,0-1.62-5.72c-3.07-2.37-2.59,1.48-5.34-2.87s-7.44.62-10.19-2.19S190.13,63,190.13,63s0-5.1-1.13-7.69-4.21-1.94-4.21-1.94-.32-5.5-3.56-9.39-1.78-5.66-2.75-7.93-3.72-3.85-4.21-2.57-.65,7.43-3.56,10.5-5.66-2.42-8.09,1.62a81.12,81.12,0,0,1-4.53,6.8s-6.47-2.59-7.6-4.37-1-4.37-2.43-5.18S145.63,29,143.85,28.32s0,4.07-1,5.19-7.77-.66-7.61,6.62-4.53-4.05-4.53-4.05l-2.75-6S126.05,15.86,124.76,18,123,28.8,123,28.8a9.28,9.28,0,0,0-4,6.64c-.65,4.69-1.13,8.09-1.62,8.73s-2.42-3.07-3.56-3.56-1.45-19.9-2.42-19.9-2.92,6-2.92,7.28-.48,8.58-2.58,8.74-4.54-.65-5.67.49-4-12.46-6.15-8.74a31.41,31.41,0,0,0-2.59,5.34l-3.23-5.34S86.08,8.74,83.82,9.87s-1.94,7.61-1.94,8.25a5.44,5.44,0,0,1-1.3,5.5,14.42,14.42,0,0,0-3.07,7.29,12.25,12.25,0,0,1-1.78,3.39L72,26.05s-2.75-11.65-3.08-12.3-2.59-.48-1.94,5.51S67.15,28,65.7,29s-6.64-4.85-6.64-4.85L55.66,18s-2.42.16-2.1,6a26.6,26.6,0,0,1-1.13,10.19c-.33,1-4.53-12-4.53-12.46s-4-5.66-4.37-6.47S46-1,42.72,1s-3.24,8.42-2.91,9.87,1.45,9.55-1.14,10.84a7.91,7.91,0,0,0-4,5.34c-.16,1.3-3.24-8.57-3.24-8.57s-5.18,0-6.47-2.27S22,6.47,22,6.47s-1.14-8.09-2.75-3.56.16,8.26-1.14,10.36-4.53,1.94-4.53,1.94l-4-5.5L0,0V114.51Z"/><rect class="cls-1" x="6.47" y="97.51" width="754.64" height="214.2"/></g></g></svg>