<svg id="visual" viewBox="0 0 900 400" width="900" height="400" xmlns="http://www.w3.org/2000/svg" xmlns:xlink="http://www.w3.org/1999/xlink" version="1.1"><rect x="0" y="0" width="900" height="400" fill="#4c399a"></rect><path d="M0 192L16.7 190C33.3 188 66.7 184 100 193.5C133.3 203 166.7 226 200 234.7C233.3 243.3 266.7 237.7 300 229.2C333.3 220.7 366.7 209.3 400 212.5C433.3 215.7 466.7 233.3 500 228.2C533.3 223 566.7 195 600 182.2C633.3 169.3 666.7 171.7 700 184.5C733.3 197.3 766.7 220.7 800 230.3C833.3 240 866.7 236 883.3 234L900 232L900 401L883.3 401C866.7 401 833.3 401 800 401C766.7 401 733.3 401 700 401C666.7 401 633.3 401 600 401C566.7 401 533.3 401 500 401C466.7 401 433.3 401 400 401C366.7 401 333.3 401 300 401C266.7 401 233.3 401 200 401C166.7 401 133.3 401 100 401C66.7 401 33.3 401 16.7 401L0 401Z" fill="#FF6F61" stroke-linecap="round" stroke-linejoin="miter"></path></svg>