<svg id="visual" viewBox="0 0 900 200" width="900" height="200" xmlns="http://www.w3.org/2000/svg" xmlns:xlink="http://www.w3.org/1999/xlink" version="1.1"><rect x="0" y="0" width="900" height="200" fill="#ff6f61"></rect><path d="M0 83L13.7 81.5C27.3 80 54.7 77 82 78.7C109.3 80.3 136.7 86.7 163.8 85.2C191 83.7 218 74.3 245.2 70.2C272.3 66 299.7 67 327 72.2C354.3 77.3 381.7 86.7 409 92.2C436.3 97.7 463.7 99.3 491 95.5C518.3 91.7 545.7 82.3 573 75.7C600.3 69 627.7 65 654.8 66C682 67 709 73 736.2 79C763.3 85 790.7 91 818 87C845.3 83 872.7 69 886.3 62L900 55L900 201L886.3 201C872.7 201 845.3 201 818 201C790.7 201 763.3 201 736.2 201C709 201 682 201 654.8 201C627.7 201 600.3 201 573 201C545.7 201 518.3 201 491 201C463.7 201 436.3 201 409 201C381.7 201 354.3 201 327 201C299.7 201 272.3 201 245.2 201C218 201 191 201 163.8 201C136.7 201 109.3 201 82 201C54.7 201 27.3 201 13.7 201L0 201Z" fill="#f75c2a"></path><path d="M0 114L13.7 116C27.3 118 54.7 122 82 119.3C109.3 116.7 136.7 107.3 163.8 108.7C191 110 218 122 245.2 127.7C272.3 133.3 299.7 132.7 327 128C354.3 123.3 381.7 114.7 409 116.2C436.3 117.7 463.7 129.3 491 134.8C518.3 140.3 545.7 139.7 573 139.3C600.3 139 627.7 139 654.8 133.2C682 127.3 709 115.7 736.2 114C763.3 112.3 790.7 120.7 818 123C845.3 125.3 872.7 121.7 886.3 119.8L900 118L900 201L886.3 201C872.7 201 845.3 201 818 201C790.7 201 763.3 201 736.2 201C709 201 682 201 654.8 201C627.7 201 600.3 201 573 201C545.7 201 518.3 201 491 201C463.7 201 436.3 201 409 201C381.7 201 354.3 201 327 201C299.7 201 272.3 201 245.2 201C218 201 191 201 163.8 201C136.7 201 109.3 201 82 201C54.7 201 27.3 201 13.7 201L0 201Z" fill="#b067c1"></path><path d="M0 171L13.7 172.7C27.3 174.3 54.7 177.7 82 179C109.3 180.3 136.7 179.7 163.8 173.3C191 167 218 155 245.2 149.8C272.3 144.7 299.7 146.3 327 152.8C354.3 159.3 381.7 170.7 409 174C436.3 177.3 463.7 172.7 491 170.2C518.3 167.7 545.7 167.3 573 169.7C600.3 172 627.7 177 654.8 176.2C682 175.3 709 168.7 736.2 166.7C763.3 164.7 790.7 167.3 818 167.5C845.3 167.7 872.7 165.3 886.3 164.2L900 163L900 201L886.3 201C872.7 201 845.3 201 818 201C790.7 201 763.3 201 736.2 201C709 201 682 201 654.8 201C627.7 201 600.3 201 573 201C545.7 201 518.3 201 491 201C463.7 201 436.3 201 409 201C381.7 201 354.3 201 327 201C299.7 201 272.3 201 245.2 201C218 201 191 201 163.8 201C136.7 201 109.3 201 82 201C54.7 201 27.3 201 13.7 201L0 201Z" fill="#0381a3"></path></svg>